<svg xmlns="http://www.w3.org/2000/svg" xmlns:xlink="http://www.w3.org/1999/xlink" width="30" height="30" viewBox="0 0 100 100"><defs><linearGradient id="a" x1="82.85" x2="51.26" y1="30.41" y2="105.9" gradientTransform="matrix(1, 0, 0, -1, -22.41, 110.97)" gradientUnits="userSpaceOnUse"><stop offset="0" stop-color="#6c56cc"/><stop offset="1" stop-color="#9785e5"/></linearGradient></defs><polygon fill="#34208c" points="44.61 0 12.91 17.52 0 45.45 19.57 90.47 47.35 100 52.44 89.8 63 26.39 44.61 0"/><polygon fill="url(#a)" points="63 26.39 43.44 14.41 16.43 35.7 47.35 100 52.44 89.8 63 26.39"/><polygon fill="#af9ff4" points="63 26.39 63 26.39 44.61 0 43.44 14.41 63 26.39"/><polygon fill="#4a37a0" points="43.44 14.41 44.61 0 12.91 17.52 16.43 35.7 43.44 14.41"/><polygon fill="#4a37a0" points="16.43 35.7 19.57 90.47 47.35 100 16.43 35.7"/></svg>