<svg xmlns="http://www.w3.org/2000/svg" id="Layer_1" data-name="Layer 1" viewBox="0 0 37.99 52.03"><defs><style>.cls-1{fill:#6603a0;fill-rule:evenodd}</style></defs><path d="M31,31c0-10,13-6.46,13-14,0-2.95-3.86-9-11-9h0A12,12,0,0,0,21,20h0a6.85,6.85,0,0,0,5.18,6.92h0a1,1,0,0,1,.82,1V55h0a1,1,0,0,1-1,1H16a2,2,0,0,1-2-2c0-7.29,9-12.35,9-18h0c0-5.67-6-8.85-6-16h0a16,16,0,0,1,16-16h0a14.63,14.63,0,0,1,15,14h0c0,.82-1,1.25-1,2h0a.89.89,0,0,0,.11.53l4.65,7.08h0a1.56,1.56,0,0,1-.5,2.14,1.62,1.62,0,0,1-.83.23h-.95a.5.5,0,0,0-.5.5v7.47h0a2,2,0,0,1-2,2h0a26,26,0,0,1-4.29-.74l-1.19-.24h0a2.3,2.3,0,0,0-2.63,1.52L38,42.73h0a2,2,0,0,0,.34,1.88c1.87,2.33,4.63,6.24,4.56,9.37h0a2,2,0,0,1-2,1.88h-9a1,1,0,0,1-1-1Z" class="cls-1" transform="translate(-13.95 -3.94)"/></svg>