<svg xmlns="http://www.w3.org/2000/svg" xmlns:xlink="http://www.w3.org/1999/xlink" id="Layer_1" x="0" y="0" version="1.1" viewBox="0 0 42 42" style="enable-background:new 0 0 42 42" xml:space="preserve"><style type="text/css">.st0{fill:none;stroke:#16a34a;stroke-width:2;stroke-linejoin:round}</style><path d="M28.5,31c8.3-6.7,9.2-15.7,2.5-27.3 M13.5,11C5.2,17.7,4.3,26.8,11,38.5 M21,1C15.7,1,10.6,3.1,6.9,6.9	C3.1,10.6,1,15.7,1,21s2.1,10.4,5.9,14.1C10.6,38.9,15.7,41,21,41s10.4-2.1,14.1-5.9C38.9,31.4,41,26.3,41,21s-2.1-10.4-5.9-14.1	C31.4,3.1,26.3,1,21,1z M21,8.5c-3.3,0-6.5,1.3-8.8,3.7c-2.3,2.3-3.7,5.5-3.7,8.8s1.3,6.5,3.7,8.8c2.3,2.3,5.5,3.7,8.8,3.7	s6.5-1.3,8.8-3.7s3.7-5.5,3.7-8.8s-1.3-6.5-3.7-8.8C27.5,9.8,24.3,8.5,21,8.5z" class="st0"/></svg>